# Blender v2.78 (sub 0) OBJ File: 'rock.blend'
# www.blender.org
mtllib rock.mtl
o Cube
v 1.000000 -0.988731 -1.000000
v 1.000000 -0.988731 1.000000
v -1.000000 -0.988731 1.000000
v -1.000000 -0.988731 -1.000000
v 0.009146 1.189829 -0.009146
v 0.009146 1.189829 0.009147
v -0.009147 1.189829 0.009147
v -0.009147 1.189829 -0.009146
v 0.772965 0.440770 -0.772964
v 0.772964 0.440770 0.772965
v -0.772965 0.440770 0.772965
v -0.772964 0.440770 -0.772965
vn 0.0000 -1.0000 0.0000
vn 0.0000 1.0000 0.0000
vn 0.7002 0.7140 0.0000
vn -0.0000 0.7140 0.7002
vn -0.7002 0.7140 -0.0000
vn 0.0000 0.1569 -0.9876
vn 0.0000 0.7140 -0.7002
vn -0.9876 0.1569 -0.0000
vn -0.0000 0.1569 0.9876
vn 0.9876 0.1569 0.0000
usemtl Material
s off
f 1//1 2//1 3//1 4//1
f 5//2 8//2 7//2 6//2
f 9//3 5//3 6//3 10//3
f 10//4 6//4 7//4 11//4
f 11//5 7//5 8//5 12//5
f 9//6 1//6 4//6 12//6
f 5//7 9//7 12//7 8//7
f 3//8 11//8 12//8 4//8
f 2//9 10//9 11//9 3//9
f 1//10 9//10 10//10 2//10
